<?xml version="1.0" encoding="utf-8"?>
<svg version="1.1" id="Ebene_1" xmlns="http://www.w3.org/2000/svg" xmlns:xlink="http://www.w3.org/1999/xlink" x="0px" y="0px"
	 viewBox="0 0 113.4 113.4" style="enable-background:new 0 0 113.4 113.4;" xml:space="preserve">
<style type="text/css">
	.st0{fill:none;stroke:#E5224D;stroke-width:1.883;stroke-miterlimit:10;}
	.st1{fill:#E6224D;}
	.st2{fill:#E5224D;}
</style>
	<line class="st0" x1="36.3" y1="8.5" x2="82.2" y2="24.6"/>
	<line class="st0" x1="70.6" y1="6.7" x2="97.1" y2="47.3"/>
	<line class="st0" x1="99.3" y1="24.7" x2="94" y2="75.2"/>
	<line class="st0" x1="111.1" y1="58.6" x2="73.6" y2="94.9"/>
	<line class="st0" x1="93.5" y1="94.3" x2="44.2" y2="95.9"/>
	<line class="st0" x1="62" y1="108.4" x2="22.7" y2="80.5"/>
	<line class="st0" x1="27.3" y1="102.2" x2="16.6" y2="51.4"/>
	<line class="st0" x1="6.2" y1="72.7" x2="28.6" y2="26.5"/>
	<line class="st0" x1="7.6" y1="34.7" x2="55.6" y2="15.3"/>
    <path class="st1" d="M56.7,0C25.4,0,0,25.4,0,56.7s25.4,56.7,56.7,56.7s56.7-25.4,56.7-56.7S88,0,56.7,0z M56.7,105.9
				c-27.1,0-49.2-22.1-49.2-49.2S29.6,7.5,56.7,7.5s49.2,22.1,49.2,49.2S83.8,105.9,56.7,105.9z"/>
    <path class="st2" d="M57,29.7c15,0,27.1,12.1,27.1,27.1c0,15-12.1,27.1-27.1,27.1S29.9,71.8,29.9,56.8C29.9,41.8,42,29.7,57,29.7
			 M51.4,38.3c-1,0-2-0.2-2.9-0.5c-1.1,2.9-3.9,5-7,5.1c0.2,3.1-1.5,6.1-4.3,7.5c1.4,2.8,1.1,6.2-0.9,8.6c2.5,2,3.5,5.2,2.7,8.2
			c3,0.8,5.3,3.3,5.8,6.4c0.4-0.1,0.9-0.1,1.3-0.1c2.7,0,5.2,1.4,6.6,3.6c1.3-0.9,2.8-1.3,4.3-1.3c1.5,0,3,0.4,4.3,1.3
			c1.4-2.2,4-3.6,6.6-3.6c0.4,0,0.9,0,1.3,0.1c0.5-3.1,2.8-5.7,5.8-6.4c-0.8-3,0.2-6.3,2.7-8.2c-2-2.4-2.4-5.8-0.9-8.6
			c-2.8-1.4-4.5-4.4-4.3-7.5c-3.1-0.1-5.9-2.2-7-5.1c-0.9,0.4-1.9,0.5-2.9,0.5c-2.1,0-4.1-0.9-5.6-2.3
			C55.5,37.4,53.5,38.3,51.4,38.3 M57,27.8c-16,0-29,13-29,29s13,29,29,29c16,0,29-13,29-29S73,27.8,57,27.8L57,27.8z M51.4,40.2
			c2,0,4-0.6,5.6-1.8c1.6,1.1,3.6,1.8,5.6,1.8c0.6,0,1.3-0.1,1.9-0.2c1.4,2.3,3.6,3.9,6.2,4.5c0.3,2.6,1.7,5,3.8,6.6
			c-0.8,2.5-0.5,5.3,0.8,7.6c-1.7,2-2.6,4.6-2.4,7.3c-2.4,1.1-4.3,3.2-5.1,5.7c-2.6,0-5.2,1.2-7,3.1C59.6,74.2,58.3,74,57,74
			c-1.3,0-2.6,0.3-3.8,0.8c-1.8-1.9-4.3-3.1-7-3.1c-0.9-2.5-2.7-4.6-5.1-5.7c0.2-2.6-0.6-5.3-2.4-7.3c1.3-2.3,1.6-5.1,0.8-7.6
			c2.1-1.6,3.5-4,3.8-6.6c2.6-0.6,4.8-2.2,6.2-4.5C50.1,40.1,50.7,40.2,51.4,40.2L51.4,40.2z"/>
    <path class="st1" d="M75,67.2c-3,0.8-5.3,3.3-5.8,6.4c-0.4-0.1-0.9-0.1-1.3-0.1c-2.7,0-5.2,1.4-6.6,3.6c-1.3-0.9-2.8-1.3-4.3-1.3
			c-1.5,0-3,0.4-4.3,1.3c-1.4-2.2-4-3.6-6.6-3.6c-0.4,0-0.9,0-1.3,0.1c-0.5-3.1-2.8-5.7-5.8-6.4c0.8-3-0.2-6.3-2.7-8.2
			c2-2.4,2.4-5.8,0.9-8.6c2.8-1.4,4.5-4.4,4.3-7.5c3.1-0.1,5.9-2.2,7-5.1c0.9,0.4,1.9,0.5,2.9,0.5c2.1,0,4.1-0.9,5.6-2.3
			c1.5,1.5,3.5,2.3,5.6,2.3c1,0,2-0.2,2.9-0.5c1.1,2.9,3.9,5,7,5.1c-0.2,3.1,1.5,6.1,4.3,7.5c-1.4,2.8-1.1,6.2,0.9,8.6
			C75.3,60.9,74.2,64.2,75,67.2z"/>
</svg>
