<?xml version="1.0" standalone="no"?>
<!DOCTYPE svg PUBLIC "-//W3C//DTD SVG 20010904//EN"
 "http://www.w3.org/TR/2001/REC-SVG-20010904/DTD/svg10.dtd">
<svg version="1.0" xmlns="http://www.w3.org/2000/svg"
 width="700.000000pt" height="700.000000pt" viewBox="0 0 700.000000 700.000000"
 preserveAspectRatio="xMidYMid meet">
<metadata>
Created by potrace 1.11, written by Peter Selinger 2001-2013
</metadata>
<g transform="translate(0.000000,700.000000) scale(0.100000,-0.100000)"
fill="#000000" stroke="none">
<path d="M3298 6995 c-1 -1 -41 -5 -88 -9 -100 -7 -225 -22 -295 -36 -27 -5
-61 -12 -75 -14 -511 -93 -1024 -322 -1452 -648 -560 -426 -969 -990 -1198
-1653 -33 -96 -81 -260 -96 -328 -20 -90 -53 -272 -59 -322 -4 -33 -9 -69 -11
-80 -19 -100 -26 -567 -11 -715 8 -77 25 -206 32 -250 31 -175 65 -319 111
-470 19 -63 39 -124 43 -135 5 -11 28 -69 51 -130 77 -201 201 -437 343 -650
183 -277 402 -517 697 -769 108 -92 340 -248 501 -339 360 -201 704 -322 1144
-401 17 -3 57 -9 90 -12 33 -3 63 -8 66 -10 29 -17 534 -25 709 -11 105 9 111
9 290 38 790 129 1553 565 2081 1189 466 550 756 1248 817 1965 14 165 7 568
-13 705 -3 19 -7 56 -10 81 -3 25 -7 54 -9 65 -2 10 -11 60 -21 109 -158 848
-655 1633 -1360 2151 -367 269 -755 455 -1190 569 -180 48 -263 63 -555 101
-47 6 -526 15 -532 9z m462 -469 c25 -2 70 -7 100 -11 30 -4 66 -8 80 -10 93
-11 272 -51 453 -102 11 -3 57 -64 105 -136 111 -172 206 -318 326 -501 104
-158 119 -185 95 -170 -8 4 -18 9 -24 10 -5 1 -73 24 -150 52 -77 28 -160 57
-185 65 -25 9 -117 41 -205 72 -88 31 -248 87 -355 125 -392 137 -598 209
-755 265 -88 31 -265 93 -392 137 -128 45 -231 83 -230 84 14 14 335 85 452
100 22 3 51 8 65 10 14 2 72 7 130 10 58 4 106 7 108 9 4 4 334 -4 382 -9z
m-1222 -217 c48 -16 107 -37 132 -45 25 -8 54 -19 65 -24 11 -5 81 -30 155
-55 318 -109 370 -129 370 -137 0 -4 -5 -8 -11 -8 -10 0 -253 -95 -344 -135
-16 -7 -77 -32 -135 -55 -103 -41 -502 -202 -860 -347 -228 -92 -950 -383
-969 -391 -15 -6 11 44 51 98 179 241 235 308 383 454 229 226 494 415 780
556 159 78 252 118 278 119 9 1 56 -13 105 -30z m2307 -90 c447 -221 833 -550
1130 -964 49 -68 64 -96 60 -115 -2 -14 -7 -61 -10 -105 -3 -44 -8 -87 -10
-95 -2 -8 -7 -51 -10 -95 -3 -43 -8 -93 -10 -110 -9 -66 -16 -131 -21 -184 -2
-31 -6 -72 -9 -91 -2 -19 -7 -66 -11 -105 -7 -82 -12 -94 -28 -66 -6 12 -139
217 -296 456 -157 239 -325 497 -375 573 -326 500 -403 618 -522 800 -73 111
-133 204 -133 206 0 9 114 -40 245 -105z m-1228 -288 c92 -33 258 -91 368
-129 493 -173 761 -267 905 -318 l155 -55 125 -192 c68 -106 164 -252 212
-325 48 -73 88 -135 88 -138 0 -3 5 -10 10 -17 11 -12 187 -280 360 -548 47
-72 84 -134 84 -138 -1 -3 -5 -37 -9 -76 -3 -38 -8 -88 -11 -110 -5 -48 -12
-116 -19 -187 -10 -95 -16 -153 -20 -178 -2 -14 -6 -56 -10 -95 -9 -98 -14
-154 -20 -195 -2 -19 -7 -64 -10 -100 -3 -36 -8 -81 -10 -100 -4 -32 -7 -58
-20 -180 -14 -146 -18 -176 -20 -190 -2 -8 -6 -52 -10 -98 -4 -46 -8 -91 -10
-100 -2 -9 -4 -29 -4 -43 -1 -25 -45 -72 -276 -294 -76 -73 -534 -516 -735
-712 -183 -177 -221 -213 -228 -214 -21 -3 -142 -8 -337 -14 -121 -3 -265 -8
-320 -10 -55 -2 -192 -6 -305 -10 -113 -3 -254 -8 -315 -10 -60 -2 -192 -7
-293 -10 l-182 -6 -96 68 c-53 37 -106 75 -118 83 -11 8 -131 93 -266 189
-135 95 -309 219 -388 275 -79 55 -209 148 -290 206 l-146 105 -38 175 c-20
96 -40 191 -43 210 -3 19 -10 51 -15 70 -5 19 -16 71 -25 115 -19 93 -15 70
-54 260 -31 144 -63 296 -150 712 -23 106 -41 201 -41 212 0 10 42 106 94 213
52 106 142 292 201 413 58 121 141 292 183 380 42 87 118 240 167 339 l90 180
245 98 c135 54 254 103 265 108 11 5 184 75 385 156 201 81 439 177 530 214
91 37 173 68 182 69 9 1 92 -26 185 -58z m-1967 -665 c0 -5 -79 -170 -235
-491 -48 -99 -113 -234 -145 -300 -32 -66 -108 -223 -170 -350 -62 -126 -136
-279 -165 -340 -29 -60 -105 -218 -170 -350 -64 -132 -144 -297 -177 -367 -34
-71 -64 -128 -68 -128 -7 0 -10 20 -26 140 -3 19 -7 46 -9 60 -33 180 -21 664
20 854 2 12 7 39 10 61 12 86 80 337 125 460 52 143 69 183 138 327 l47 98
125 49 c69 28 136 55 150 60 14 6 140 57 280 115 254 104 270 110 270 102z
m4585 -450 c109 -228 179 -431 234 -686 27 -124 31 -145 36 -205 3 -27 7 -59
10 -70 24 -110 24 -581 0 -705 -3 -15 -42 -60 -94 -110 -66 -63 -497 -480
-538 -520 -2 -3 -2 27 2 65 6 70 9 93 20 195 20 179 29 266 39 380 4 41 9 86
11 100 6 42 15 122 20 178 9 90 15 155 20 199 3 23 7 68 10 100 3 32 7 72 10
88 2 17 7 62 10 100 4 39 8 81 10 95 2 14 7 52 10 85 4 33 8 76 10 95 2 19 7
67 11 105 4 39 8 81 9 95 2 14 6 57 9 95 4 39 9 77 11 85 2 8 7 49 10 90 3 41
8 89 10 105 2 17 7 62 10 100 3 39 8 81 11 94 5 24 5 24 25 -8 11 -18 44 -83
74 -145z m-5136 -1626 c59 -280 105 -502 136 -645 66 -308 107 -500 111 -530
3 -16 9 -43 14 -60 4 -16 11 -46 14 -65 3 -19 8 -44 10 -55 3 -11 23 -105 45
-210 22 -104 47 -224 56 -265 9 -41 19 -86 21 -100 3 -14 7 -31 9 -37 10 -30
-19 -6 -137 111 -133 132 -247 264 -340 392 -207 289 -382 652 -462 960 l-16
62 46 93 c26 52 77 157 114 234 37 77 116 239 175 360 l107 220 39 -185 c21
-102 48 -228 58 -280z m5362 -360 c-41 -178 -107 -383 -170 -525 -50 -111
-116 -243 -153 -304 -21 -34 -38 -65 -38 -68 0 -12 -173 -257 -234 -333 -88
-107 -127 -150 -250 -272 -91 -91 -101 -98 -140 -99 -22 -1 -72 -3 -111 -4
-38 -2 -169 -6 -290 -10 -121 -4 -257 -8 -303 -9 l-83 -3 105 101 c99 95 406
392 720 697 78 75 171 165 207 200 37 35 179 173 315 305 403 391 439 425 442
416 1 -4 -7 -46 -17 -92z m-4286 -1420 c336 -238 633 -449 660 -468 224 -158
665 -474 665 -477 0 -5 -184 2 -270 10 -535 52 -1025 230 -1457 531 -101 71
-119 90 -126 144 -3 19 -13 69 -22 110 -9 41 -18 84 -21 95 -2 11 -10 52 -18
90 -9 39 -18 81 -20 95 -3 14 -14 70 -26 125 -12 55 -24 111 -26 125 -3 14 -9
39 -13 57 -12 42 -5 47 33 19 17 -13 306 -218 641 -456z m3159 -327 c-107 -89
-389 -259 -554 -335 -186 -87 -463 -182 -589 -204 -14 -3 -42 -9 -61 -14 -19
-5 -48 -11 -65 -14 -16 -3 -41 -8 -55 -10 -52 -10 -148 -22 -254 -31 l-58 -5
-87 62 c-47 34 -88 65 -91 69 -3 3 -10 8 -15 10 -14 5 -585 412 -582 415 2 2
142 7 517 19 256 8 479 16 600 20 69 2 217 7 330 11 113 3 243 7 290 9 47 2
198 6 335 10 138 4 251 8 252 9 1 1 28 2 59 2 l58 1 -30 -24z"/>
<path d="M3508 5285 c-2 -1 -50 -5 -108 -8 -342 -19 -675 -143 -965 -361 -106
-80 -272 -247 -345 -349 -33 -45 -63 -86 -67 -92 -20 -25 -93 -157 -123 -220
-67 -146 -131 -348 -145 -465 -4 -30 -11 -77 -15 -105 -4 -27 -8 -115 -8 -195
0 -394 120 -753 362 -1075 70 -94 234 -261 326 -332 353 -273 797 -407 1235
-371 55 4 111 10 125 12 87 14 111 18 183 37 161 41 355 124 497 212 164 103
363 281 460 412 25 33 50 66 57 72 6 7 21 29 34 50 12 21 36 61 53 88 62 98
164 342 180 429 2 14 7 30 10 34 7 12 35 169 44 247 3 33 6 130 6 215 -2 270
-62 522 -182 766 -278 563 -856 952 -1471 990 -47 3 -98 7 -113 9 -15 1 -28 2
-30 0z m192 -129 c25 -3 56 -8 70 -10 14 -3 43 -7 65 -11 303 -45 672 -247
899 -494 17 -18 42 -45 55 -59 67 -73 169 -228 230 -349 64 -129 130 -335 147
-458 3 -27 8 -59 11 -70 13 -49 10 -355 -4 -445 -29 -196 -84 -367 -173 -539
-107 -207 -281 -415 -460 -550 -77 -59 -235 -161 -248 -161 -4 0 -28 -11 -54
-25 -26 -14 -73 -34 -105 -46 -32 -11 -67 -24 -78 -29 -24 -11 -161 -47 -201
-54 -16 -3 -60 -10 -99 -17 -112 -20 -385 -17 -505 5 -14 3 -38 7 -55 9 -150
23 -382 114 -549 214 -149 90 -375 292 -451 404 -17 24 -32 46 -35 49 -19 17
-64 91 -128 210 -89 168 -161 412 -178 605 -5 56 -5 285 0 315 2 14 7 50 11
80 46 352 215 689 477 950 137 136 272 232 443 315 96 46 236 100 284 110 9 2
43 10 76 18 71 18 113 25 215 33 41 3 76 7 78 9 4 4 215 -4 262 -9z"/>
<path d="M3506 4771 c-15 -23 -121 -83 -189 -106 -86 -29 -178 -33 -268 -12
l-56 14 -28 -56 c-16 -31 -56 -83 -90 -116 -79 -79 -151 -113 -287 -140 -25
-5 -28 -9 -28 -48 0 -60 -25 -150 -61 -217 -41 -78 -104 -141 -197 -196 -2 -1
7 -35 20 -75 47 -154 19 -336 -70 -441 -12 -15 -9 -22 34 -67 99 -104 140
-218 131 -369 -5 -81 -3 -94 11 -99 152 -48 285 -187 322 -335 l12 -48 63 0
c150 0 261 -46 365 -150 l67 -66 57 27 c130 61 283 61 410 -1 57 -27 62 -28
74 -12 93 127 261 209 412 200 l59 -3 21 64 c46 140 139 246 265 302 l76 33
-7 41 c-12 70 -6 158 16 226 21 71 85 176 126 208 30 24 30 31 -1 76 -52 77
-69 141 -69 260 0 90 4 120 22 165 12 30 22 56 22 57 0 2 -18 14 -40 28 -127
80 -216 236 -222 389 -1 50 -2 50 -78 61 -119 18 -279 140 -330 251 l-23 51
-61 -15 c-130 -30 -290 -1 -393 73 -70 50 -81 56 -87 46z"/>
</g>
</svg>
